<?xml version="1.0" standalone="no"?>
<!DOCTYPE svg PUBLIC "-//W3C//DTD SVG 20010904//EN"
 "http://www.w3.org/TR/2001/REC-SVG-20010904/DTD/svg10.dtd">
<svg version="1.0" xmlns="http://www.w3.org/2000/svg"
 width="600.000000pt" height="600.000000pt" viewBox="0 0 600.000000 600.000000"
 preserveAspectRatio="xMidYMid meet">
<metadata>
Created by potrace 1.11, written by Peter Selinger 2001-2013
</metadata>
<g transform="translate(0.000000,600.000000) scale(0.100000,-0.100000)"
fill="#000000" stroke="none">
<path d="M2582 4461 c-293 -186 -538 -343 -544 -349 -7 -7 20 -57 87 -164 53
-84 100 -152 105 -151 19 5 468 287 541 339 42 30 109 85 149 122 41 37 71 58
67 48 -12 -30 -110 -427 -161 -647 -25 -108 -151 -691 -281 -1295 -129 -604
-238 -1107 -241 -1116 -5 -17 10 -18 210 -18 215 0 216 0 221 23 16 66 755
3532 755 3539 0 4 -84 8 -187 7 l-188 0 -533 -338z"/>
</g>
</svg>
